<?xml version="1.0" standalone="no"?><!DOCTYPE svg PUBLIC "-//W3C//DTD SVG 1.1//EN" "http://www.w3.org/Graphics/SVG/1.1/DTD/svg11.dtd"><svg t="1674051988084" class="icon" viewBox="0 0 1024 1024" version="1.1" xmlns="http://www.w3.org/2000/svg" p-id="2401" xmlns:xlink="http://www.w3.org/1999/xlink" width="200" height="200"><path d="M187.733333 1024c-3.413333 0-6.826667 0-10.24-3.413333-6.826667-6.826667-6.826667-17.066667 0-23.893334 105.813333-126.293333 58.026667-225.28 0-283.306666-6.826667-6.826667-6.826667-17.066667 0-23.893334s17.066667-6.826667 23.893334 0c95.573333 95.573333 98.986667 218.453333 3.413333 331.093334-6.826667 0-10.24 3.413333-17.066667 3.413333zM1013.76 651.946667l-375.466667-204.8c-6.826667-3.413333-13.653333-3.413333-20.48 3.413333-3.413333 3.413333-3.413333 10.24-3.413333 17.066667l170.666667 409.6c3.413333 6.826667 6.826667 10.24 13.653333 10.24s13.653333-3.413333 13.653333-10.24l64.853334-133.12 133.12-64.853334c6.826667-3.413333 10.24-10.24 10.24-13.653333 3.413333-6.826667 0-10.24-6.826667-13.653333z" fill="" p-id="2402"></path><path d="M187.733333 716.8C139.946667 716.8 102.4 679.253333 102.4 631.466667S139.946667 546.133333 187.733333 546.133333 273.066667 583.68 273.066667 631.466667 235.52 716.8 187.733333 716.8z m0-136.533333c-27.306667 0-51.2 23.893333-51.2 51.2S160.426667 682.666667 187.733333 682.666667 238.933333 658.773333 238.933333 631.466667 215.04 580.266667 187.733333 580.266667z" fill="" p-id="2403"></path><path d="M512 682.666667c-88.746667 0-180.906667-17.066667-266.24-51.2-3.413333-3.413333-10.24-6.826667-10.24-10.24-6.826667-27.306667-37.546667-47.786667-68.266667-34.133334-3.413333 3.413333-10.24 0-17.066666 0C54.613333 518.826667 0 433.493333 0 341.333333 0 153.6 228.693333 0 512 0s512 153.6 512 341.333333c0 75.093333-34.133333 150.186667-98.986667 208.213334-6.826667 6.826667-17.066667 6.826667-23.893333 0-6.826667-6.826667-6.826667-17.066667 0-23.893334 58.026667-51.2 88.746667-116.053333 88.746667-180.906666 0-170.666667-215.04-307.2-477.866667-307.2S34.133333 170.666667 34.133333 341.333333c0 78.506667 47.786667 150.186667 133.12 208.213334 44.373333-10.24 85.333333 13.653333 102.4 51.2 78.506667 30.72 163.84 47.786667 245.76 47.786666 40.96 0 85.333333-10.24 119.466667-17.066666 10.24-3.413333 17.066667 3.413333 20.48 13.653333 3.413333 10.24-3.413333 17.066667-13.653333 20.48-40.96 6.826667-85.333333 17.066667-129.706667 17.066667z" fill="" p-id="2404"></path></svg>